<svg enable-background="new 0 0 140 140" height="512" viewBox="0 0 140 140" width="512" xmlns="http://www.w3.org/2000/svg"><circle cx="70" cy="70" fill="#4abba4" r="64"/><path d="m104.8853302 38.0239906-.4099731-.4101562-13.420044-12.3100605c-.7999878-.6196289-1.9199829-.6196289-2.7199707 0l-13.4199829 12.3100605c-.9800415.7602539-1.1600342 2.1601562-.4100342 3.1298828l3.0200195 3.0205078v1.1298828h-5.1600342l-7.2799683-7.2802734-13.4199866-12.3100605c-.8000488-.6196289-1.9200439-.6196289-2.7200317 0l-13.419983 12.3100605c-.9800415.7602539-1.1600342 2.1601562-.4100342 3.1298828l.3699951.3803711.0400391.0297852 2.6099854 2.6103516v1.1298828h-5.8699951l-8.6400127 17.8999023 8.6400127 8.6401329v41.449707l18.0013428 18.0014648c6.2172241 2.0136719 12.8452759 3.1147461 19.7333412 3.1147461 35.3463135 0 64-28.6538086 64-64 0-.9848633-.0302124-1.9619141-.0742188-2.9355469z" opacity=".1"/><path d="m32.269863 60.711506h75.460243v52.170902h-75.460243z" fill="#dbd8dd"/><path d="m107.7301102 44.8911934h-75.4602471l-8.6405182 17.899189h92.7412835z" fill="#344d5b"/><path d="m62.4767494 54.0602455h-24.339096v-15.6349182l12.169548-11.3569946 12.169548 11.3569946z" fill="#d6b24e"/><path d="m63.7263298 41.6189308c-.4745636 0-.9529419-.1506538-1.3588562-.4625816l-12.0602722-11.2728119-12.0602684 11.2728119c-.9774628.7521667-2.378273.5680084-3.1296234-.4089088s-.5682793-2.378273.408638-3.1293488l13.4207611-12.3189278c.802021-.6167717 1.9189644-.6167717 2.7209854 0l13.4207611 12.3189278c.9769211.7510757 1.1599884 2.1524315.408638 3.1293488-.4396896.5718192-1.1016846.8714904-1.7707634.8714904z" fill="#467082"/><path d="m45.660011 40.359875h9.294385v9.294385h-9.294385z" fill="#4288b9"/><path d="m55.704174 50.4043083h-10.7939453v-10.7944336h10.7939453zm-9.2939453-1.5h7.7939453v-7.7944336h-7.7939453z" fill="#ededed"/><path d="m101.8623199 54.0602455h-24.339096v-15.6349182l12.169548-11.3569946 12.169548 11.3569946z" fill="#d6b24e"/><path d="m103.1119003 41.6189308c-.4745636 0-.9529419-.1506538-1.3588562-.4625816l-12.0602722-11.2728119-12.0602722 11.2728119c-.9774628.7521667-2.378273.5680084-3.1296234-.4089088-.7513428-.9769173-.5682755-2.378273.408638-3.1293488l13.4207687-12.3189278c.8020172-.6167717 1.9189606-.6167717 2.7209778 0l13.4207687 12.3189278c.9769135.7510757 1.1599808 2.1524315.408638 3.1293488-.4396972.5718192-1.1016922.8714904-1.7707672.8714904z" fill="#467082"/><path d="m85.045578 40.359875h9.294385v9.294385h-9.294385z" fill="#4288b9"/><path d="m95.0897446 50.4043083h-10.7939453v-10.7944336h10.7939453zm-9.2939453-1.5h7.7939453v-7.7944336h-7.7939453z" fill="#ededed"/><path d="m70 79.2125092c-6.513546 0-11.7938194 5.2802734-11.7938194 11.7939453v21.8759766h23.5876427v-21.8759766c-.0000001-6.5136719-5.2802735-11.7939453-11.7938233-11.7939453z" fill="#32786a"/><path d="m37.689606 89.220581h15.09465v13.653801h-15.09465z" fill="#4288b9"/><path d="m36.689579 88.2203217v15.6542969h17.0947266v-15.6542969zm15.0947266 6.8271484h-5.5473633v-4.8271484h5.5473633zm-7.5473633-4.8271484v4.8271484h-5.5473633v-4.8271484zm-5.5473633 6.8271484h5.5473633v4.8271484h-5.5473633zm7.5473633 4.8271484v-4.8271484h5.5473633v4.8271484z" fill="#fff"/><path d="m87.2146 89.220581h15.09465v13.653801h-15.09465z" fill="#4288b9"/><path d="m86.2145691 88.2203217v15.6542969h17.0947266v-15.6542969zm15.0947266 6.8271484h-5.5473633v-4.8271484h5.5473633zm-7.5473633-4.8271484v4.8271484h-5.5473633v-4.8271484zm-5.5473633 6.8271484h5.5473633v4.8271484h-5.5473633zm7.5473633 4.8271484v-4.8271484h5.5473633v4.8271484z" fill="#fff"/></svg>